<svg xmlns="http://www.w3.org/2000/svg" xmlns:xlink="http://www.w3.org/1999/xlink" width="500" zoomAndPan="magnify" viewBox="0 0 375 374.999991" height="500" preserveAspectRatio="xMidYMid meet" version="1.2"><defs><clipPath id="7cc916895e"><path d="M 116.832031 159.753906 L 129.492188 159.753906 L 129.492188 184.777344 L 116.832031 184.777344 Z M 116.832031 159.753906 "/></clipPath><clipPath id="1f34c3571e"><path d="M 141.679688 172.292969 L 154.34375 172.292969 L 154.34375 197.316406 L 141.679688 197.316406 Z M 141.679688 172.292969 "/></clipPath><clipPath id="1bd8158d2e"><path d="M 116.832031 184.601562 L 141.855469 184.601562 L 141.855469 197.265625 L 116.832031 197.265625 Z M 116.832031 184.601562 "/></clipPath><clipPath id="826dd6a612"><path d="M 129.371094 159.804688 L 154.394531 159.804688 L 154.394531 172.46875 L 129.371094 172.46875 Z M 129.371094 159.804688 "/></clipPath><clipPath id="6d19572e67"><path d="M 221.867188 180.601562 L 234.832031 180.601562 L 234.832031 195 L 221.867188 195 Z M 221.867188 180.601562 "/></clipPath></defs><g id="3b9a09b220"><g clip-rule="nonzero" clip-path="url(#7cc916895e)"><path style=" stroke:none;fill-rule:nonzero;fill:#eb6d02;fill-opacity:1;" d="M 116.832031 159.816406 L 116.890625 159.816406 C 118.574219 159.816406 120.207031 160.144531 121.746094 160.796875 C 123.230469 161.425781 124.566406 162.324219 125.710938 163.46875 C 126.859375 164.617188 127.757812 165.949219 128.386719 167.433594 C 129.035156 168.972656 129.367188 170.605469 129.367188 172.292969 C 129.367188 173.976562 129.035156 175.609375 128.386719 177.148438 C 127.757812 178.632812 126.859375 179.96875 125.710938 181.113281 C 124.566406 182.257812 123.230469 183.15625 121.746094 183.785156 C 120.207031 184.4375 118.574219 184.765625 116.890625 184.765625 L 116.832031 184.765625 Z M 116.832031 159.816406 "/></g><g clip-rule="nonzero" clip-path="url(#1f34c3571e)"><path style=" stroke:none;fill-rule:nonzero;fill:#eb6d02;fill-opacity:1;" d="M 154.34375 197.253906 L 154.28125 197.253906 C 152.597656 197.253906 150.964844 196.925781 149.425781 196.273438 C 147.941406 195.644531 146.605469 194.746094 145.460938 193.601562 C 144.316406 192.453125 143.417969 191.121094 142.789062 189.636719 C 142.136719 188.097656 141.808594 186.464844 141.808594 184.777344 C 141.808594 183.09375 142.136719 181.460938 142.789062 179.921875 C 143.417969 178.4375 144.316406 177.101562 145.460938 175.957031 C 146.605469 174.8125 147.941406 173.914062 149.425781 173.285156 C 150.964844 172.632812 152.597656 172.304688 154.28125 172.304688 L 154.34375 172.304688 Z M 154.34375 197.253906 "/></g><g clip-rule="nonzero" clip-path="url(#1bd8158d2e)"><path style=" stroke:none;fill-rule:nonzero;fill:#eb6d02;fill-opacity:1;" d="M 116.890625 197.265625 L 116.890625 197.207031 C 116.890625 195.523438 117.222656 193.886719 117.871094 192.351562 C 118.5 190.863281 119.402344 189.53125 120.546875 188.382812 C 121.691406 187.238281 123.027344 186.339844 124.511719 185.710938 C 126.050781 185.0625 127.683594 184.730469 129.367188 184.730469 C 131.050781 184.730469 132.6875 185.0625 134.222656 185.710938 C 135.710938 186.339844 137.042969 187.238281 138.1875 188.382812 C 139.335938 189.53125 140.234375 190.863281 140.863281 192.351562 C 141.511719 193.886719 141.84375 195.523438 141.84375 197.207031 L 141.84375 197.265625 Z M 116.890625 197.265625 "/></g><g clip-rule="nonzero" clip-path="url(#826dd6a612)"><path style=" stroke:none;fill-rule:nonzero;fill:#eb6d02;fill-opacity:1;" d="M 154.332031 159.804688 L 154.332031 159.863281 C 154.332031 161.546875 154 163.183594 153.351562 164.71875 C 152.722656 166.207031 151.824219 167.539062 150.675781 168.6875 C 149.53125 169.832031 148.199219 170.730469 146.710938 171.359375 C 145.175781 172.011719 143.539062 172.339844 141.855469 172.339844 C 140.171875 172.339844 138.539062 172.011719 137 171.359375 C 135.515625 170.730469 134.179688 169.832031 133.035156 168.6875 C 131.890625 167.539062 130.988281 166.207031 130.359375 164.71875 C 129.710938 163.183594 129.378906 161.546875 129.378906 159.863281 L 129.378906 159.804688 Z M 154.332031 159.804688 "/></g><g style="fill:#030955;fill-opacity:1;"><g transform="translate(161.436483, 175.935252)"><path style="stroke:none" d="M 5.015625 0.1875 C 4.128906 0.1875 3.269531 0.0664062 2.4375 -0.171875 C 1.613281 -0.410156 0.953125 -0.722656 0.453125 -1.109375 L 1.328125 -3.0625 C 1.804688 -2.707031 2.378906 -2.421875 3.046875 -2.203125 C 3.710938 -1.992188 4.375 -1.890625 5.03125 -1.890625 C 5.769531 -1.890625 6.316406 -2 6.671875 -2.21875 C 7.023438 -2.4375 7.203125 -2.726562 7.203125 -3.09375 C 7.203125 -3.363281 7.097656 -3.585938 6.890625 -3.765625 C 6.679688 -3.941406 6.410156 -4.082031 6.078125 -4.1875 C 5.753906 -4.289062 5.316406 -4.410156 4.765625 -4.546875 C 3.910156 -4.742188 3.207031 -4.941406 2.65625 -5.140625 C 2.113281 -5.347656 1.644531 -5.675781 1.25 -6.125 C 0.863281 -6.570312 0.671875 -7.171875 0.671875 -7.921875 C 0.671875 -8.578125 0.847656 -9.171875 1.203125 -9.703125 C 1.554688 -10.234375 2.085938 -10.648438 2.796875 -10.953125 C 3.515625 -11.265625 4.382812 -11.421875 5.40625 -11.421875 C 6.125 -11.421875 6.820312 -11.332031 7.5 -11.15625 C 8.1875 -10.988281 8.789062 -10.75 9.3125 -10.4375 L 8.5 -8.453125 C 7.46875 -9.046875 6.429688 -9.34375 5.390625 -9.34375 C 4.660156 -9.34375 4.117188 -9.222656 3.765625 -8.984375 C 3.421875 -8.753906 3.25 -8.445312 3.25 -8.0625 C 3.25 -7.675781 3.453125 -7.390625 3.859375 -7.203125 C 4.265625 -7.015625 4.878906 -6.828125 5.703125 -6.640625 C 6.554688 -6.441406 7.253906 -6.238281 7.796875 -6.03125 C 8.335938 -5.832031 8.800781 -5.507812 9.1875 -5.0625 C 9.582031 -4.625 9.78125 -4.035156 9.78125 -3.296875 C 9.78125 -2.648438 9.601562 -2.0625 9.25 -1.53125 C 8.894531 -1 8.359375 -0.578125 7.640625 -0.265625 C 6.921875 0.0351562 6.046875 0.1875 5.015625 0.1875 Z M 5.015625 0.1875 "/></g></g><g style="fill:#030955;fill-opacity:1;"><g transform="translate(171.664388, 175.935252)"><path style="stroke:none" d="M 6.1875 -11.234375 C 7.1875 -11.234375 8.050781 -11.066406 8.78125 -10.734375 C 9.519531 -10.398438 10.085938 -9.925781 10.484375 -9.3125 C 10.878906 -8.707031 11.078125 -7.988281 11.078125 -7.15625 C 11.078125 -6.332031 10.878906 -5.613281 10.484375 -5 C 10.085938 -4.382812 9.519531 -3.910156 8.78125 -3.578125 C 8.050781 -3.253906 7.1875 -3.09375 6.1875 -3.09375 L 3.9375 -3.09375 L 3.9375 0 L 1.328125 0 L 1.328125 -11.234375 Z M 6.046875 -5.21875 C 6.828125 -5.21875 7.421875 -5.382812 7.828125 -5.71875 C 8.234375 -6.050781 8.4375 -6.53125 8.4375 -7.15625 C 8.4375 -7.789062 8.234375 -8.273438 7.828125 -8.609375 C 7.421875 -8.941406 6.828125 -9.109375 6.046875 -9.109375 L 3.9375 -9.109375 L 3.9375 -5.21875 Z M 6.046875 -5.21875 "/></g></g><g style="fill:#030955;fill-opacity:1;"><g transform="translate(183.399228, 175.935252)"><path style="stroke:none" d="M 6.765625 0.1875 C 5.597656 0.1875 4.546875 -0.0625 3.609375 -0.5625 C 2.679688 -1.0625 1.953125 -1.753906 1.421875 -2.640625 C 0.890625 -3.523438 0.625 -4.515625 0.625 -5.609375 C 0.625 -6.710938 0.890625 -7.707031 1.421875 -8.59375 C 1.953125 -9.476562 2.679688 -10.171875 3.609375 -10.671875 C 4.546875 -11.171875 5.597656 -11.421875 6.765625 -11.421875 C 7.929688 -11.421875 8.976562 -11.171875 9.90625 -10.671875 C 10.84375 -10.171875 11.578125 -9.476562 12.109375 -8.59375 C 12.648438 -7.707031 12.921875 -6.710938 12.921875 -5.609375 C 12.921875 -4.515625 12.648438 -3.523438 12.109375 -2.640625 C 11.578125 -1.753906 10.84375 -1.0625 9.90625 -0.5625 C 8.976562 -0.0625 7.929688 0.1875 6.765625 0.1875 Z M 6.765625 -2.015625 C 7.429688 -2.015625 8.03125 -2.164062 8.5625 -2.46875 C 9.101562 -2.78125 9.523438 -3.207031 9.828125 -3.75 C 10.128906 -4.300781 10.28125 -4.921875 10.28125 -5.609375 C 10.28125 -6.304688 10.128906 -6.925781 9.828125 -7.46875 C 9.523438 -8.019531 9.101562 -8.445312 8.5625 -8.75 C 8.03125 -9.050781 7.429688 -9.203125 6.765625 -9.203125 C 6.109375 -9.203125 5.507812 -9.050781 4.96875 -8.75 C 4.4375 -8.445312 4.015625 -8.019531 3.703125 -7.46875 C 3.398438 -6.925781 3.25 -6.304688 3.25 -5.609375 C 3.25 -4.921875 3.398438 -4.300781 3.703125 -3.75 C 4.015625 -3.207031 4.4375 -2.78125 4.96875 -2.46875 C 5.507812 -2.164062 6.109375 -2.015625 6.765625 -2.015625 Z M 6.765625 -2.015625 "/></g></g><g style="fill:#030955;fill-opacity:1;"><g transform="translate(196.929565, 175.935252)"><path style="stroke:none" d="M 8.484375 0 L 6.328125 -3.125 L 3.9375 -3.125 L 3.9375 0 L 1.328125 0 L 1.328125 -11.234375 L 6.1875 -11.234375 C 7.1875 -11.234375 8.050781 -11.066406 8.78125 -10.734375 C 9.519531 -10.398438 10.085938 -9.925781 10.484375 -9.3125 C 10.878906 -8.707031 11.078125 -7.988281 11.078125 -7.15625 C 11.078125 -6.320312 10.875 -5.601562 10.46875 -5 C 10.070312 -4.394531 9.503906 -3.929688 8.765625 -3.609375 L 11.28125 0 Z M 8.4375 -7.15625 C 8.4375 -7.789062 8.234375 -8.273438 7.828125 -8.609375 C 7.421875 -8.941406 6.828125 -9.109375 6.046875 -9.109375 L 3.9375 -9.109375 L 3.9375 -5.203125 L 6.046875 -5.203125 C 6.828125 -5.203125 7.421875 -5.367188 7.828125 -5.703125 C 8.234375 -6.046875 8.4375 -6.53125 8.4375 -7.15625 Z M 8.4375 -7.15625 "/></g></g><g style="fill:#030955;fill-opacity:1;"><g transform="translate(208.712504, 175.935252)"><path style="stroke:none" d="M 8.734375 -2.40625 L 3.515625 -2.40625 L 2.515625 0 L -0.140625 0 L 4.859375 -11.234375 L 7.421875 -11.234375 L 12.453125 0 L 9.71875 0 Z M 7.90625 -4.375 L 6.125 -8.6875 L 4.34375 -4.375 Z M 7.90625 -4.375 "/></g></g><g style="fill:#030955;fill-opacity:1;"><g transform="translate(220.992403, 175.935252)"><path style="stroke:none" d=""/></g></g><g style="fill:#030955;fill-opacity:1;"><g transform="translate(225.52923, 175.935252)"><path style="stroke:none" d="M 6.765625 0.1875 C 5.597656 0.1875 4.546875 -0.0625 3.609375 -0.5625 C 2.679688 -1.0625 1.953125 -1.753906 1.421875 -2.640625 C 0.890625 -3.523438 0.625 -4.515625 0.625 -5.609375 C 0.625 -6.710938 0.890625 -7.707031 1.421875 -8.59375 C 1.953125 -9.476562 2.679688 -10.171875 3.609375 -10.671875 C 4.546875 -11.171875 5.597656 -11.421875 6.765625 -11.421875 C 7.929688 -11.421875 8.976562 -11.171875 9.90625 -10.671875 C 10.84375 -10.171875 11.578125 -9.476562 12.109375 -8.59375 C 12.648438 -7.707031 12.921875 -6.710938 12.921875 -5.609375 C 12.921875 -4.515625 12.648438 -3.523438 12.109375 -2.640625 C 11.578125 -1.753906 10.84375 -1.0625 9.90625 -0.5625 C 8.976562 -0.0625 7.929688 0.1875 6.765625 0.1875 Z M 6.765625 -2.015625 C 7.429688 -2.015625 8.03125 -2.164062 8.5625 -2.46875 C 9.101562 -2.78125 9.523438 -3.207031 9.828125 -3.75 C 10.128906 -4.300781 10.28125 -4.921875 10.28125 -5.609375 C 10.28125 -6.304688 10.128906 -6.925781 9.828125 -7.46875 C 9.523438 -8.019531 9.101562 -8.445312 8.5625 -8.75 C 8.03125 -9.050781 7.429688 -9.203125 6.765625 -9.203125 C 6.109375 -9.203125 5.507812 -9.050781 4.96875 -8.75 C 4.4375 -8.445312 4.015625 -8.019531 3.703125 -7.46875 C 3.398438 -6.925781 3.25 -6.304688 3.25 -5.609375 C 3.25 -4.921875 3.398438 -4.300781 3.703125 -3.75 C 4.015625 -3.207031 4.4375 -2.78125 4.96875 -2.46875 C 5.507812 -2.164062 6.109375 -2.015625 6.765625 -2.015625 Z M 6.765625 -2.015625 "/></g></g><g style="fill:#030955;fill-opacity:1;"><g transform="translate(239.059567, 175.935252)"><path style="stroke:none" d="M 11.640625 -11.234375 L 11.640625 0 L 9.5 0 L 3.90625 -6.8125 L 3.90625 0 L 1.328125 0 L 1.328125 -11.234375 L 3.484375 -11.234375 L 9.0625 -4.40625 L 9.0625 -11.234375 Z M 11.640625 -11.234375 "/></g></g><g style="fill:#030955;fill-opacity:1;"><g transform="translate(252.012779, 175.935252)"><path style="stroke:none" d="M 10.03125 -2.09375 L 10.03125 0 L 1.328125 0 L 1.328125 -11.234375 L 9.828125 -11.234375 L 9.828125 -9.140625 L 3.921875 -9.140625 L 3.921875 -6.703125 L 9.125 -6.703125 L 9.125 -4.6875 L 3.921875 -4.6875 L 3.921875 -2.09375 Z M 10.03125 -2.09375 "/></g></g><g style="fill:#030955;fill-opacity:1;"><g transform="translate(161.436483, 193.064709)"><path style="stroke:none" d="M 4.015625 -10.203125 L 0.0625 -10.203125 L 0.0625 -11.234375 L 9.140625 -11.234375 L 9.140625 -10.203125 L 5.203125 -10.203125 L 5.203125 0 L 4.015625 0 Z M 4.015625 -10.203125 "/></g></g><g style="fill:#030955;fill-opacity:1;"><g transform="translate(170.638391, 193.064709)"><path style="stroke:none" d="M 9.5 0 L 6.9375 -3.609375 C 6.644531 -3.578125 6.34375 -3.5625 6.03125 -3.5625 L 3.015625 -3.5625 L 3.015625 0 L 1.828125 0 L 1.828125 -11.234375 L 6.03125 -11.234375 C 7.46875 -11.234375 8.59375 -10.890625 9.40625 -10.203125 C 10.21875 -9.515625 10.625 -8.570312 10.625 -7.375 C 10.625 -6.5 10.398438 -5.757812 9.953125 -5.15625 C 9.515625 -4.550781 8.882812 -4.113281 8.0625 -3.84375 L 10.796875 0 Z M 6 -4.578125 C 7.113281 -4.578125 7.960938 -4.820312 8.546875 -5.3125 C 9.140625 -5.800781 9.4375 -6.488281 9.4375 -7.375 C 9.4375 -8.289062 9.140625 -8.988281 8.546875 -9.46875 C 7.960938 -9.957031 7.113281 -10.203125 6 -10.203125 L 3.015625 -10.203125 L 3.015625 -4.578125 Z M 6 -4.578125 "/></g></g><g style="fill:#030955;fill-opacity:1;"><g transform="translate(182.228955, 193.064709)"><path style="stroke:none" d="M 6.359375 0.09375 C 4.898438 0.09375 3.765625 -0.320312 2.953125 -1.15625 C 2.140625 -1.988281 1.734375 -3.203125 1.734375 -4.796875 L 1.734375 -11.234375 L 2.921875 -11.234375 L 2.921875 -4.84375 C 2.921875 -3.539062 3.210938 -2.566406 3.796875 -1.921875 C 4.390625 -1.285156 5.242188 -0.96875 6.359375 -0.96875 C 7.484375 -0.96875 8.335938 -1.285156 8.921875 -1.921875 C 9.503906 -2.566406 9.796875 -3.539062 9.796875 -4.84375 L 9.796875 -11.234375 L 10.953125 -11.234375 L 10.953125 -4.796875 C 10.953125 -3.203125 10.546875 -1.988281 9.734375 -1.15625 C 8.929688 -0.320312 7.804688 0.09375 6.359375 0.09375 Z M 6.359375 0.09375 "/></g></g><g style="fill:#030955;fill-opacity:1;"><g transform="translate(194.92567, 193.064709)"><path style="stroke:none" d="M 4.921875 0.09375 C 4.085938 0.09375 3.285156 -0.0351562 2.515625 -0.296875 C 1.753906 -0.566406 1.164062 -0.921875 0.75 -1.359375 L 1.21875 -2.28125 C 1.625 -1.875 2.160156 -1.546875 2.828125 -1.296875 C 3.503906 -1.046875 4.203125 -0.921875 4.921875 -0.921875 C 5.929688 -0.921875 6.6875 -1.101562 7.1875 -1.46875 C 7.6875 -1.832031 7.9375 -2.3125 7.9375 -2.90625 C 7.9375 -3.351562 7.800781 -3.707031 7.53125 -3.96875 C 7.257812 -4.238281 6.925781 -4.445312 6.53125 -4.59375 C 6.132812 -4.738281 5.582031 -4.898438 4.875 -5.078125 C 4.03125 -5.285156 3.359375 -5.488281 2.859375 -5.6875 C 2.359375 -5.882812 1.925781 -6.1875 1.5625 -6.59375 C 1.207031 -7 1.03125 -7.550781 1.03125 -8.25 C 1.03125 -8.8125 1.175781 -9.328125 1.46875 -9.796875 C 1.769531 -10.265625 2.226562 -10.632812 2.84375 -10.90625 C 3.46875 -11.1875 4.242188 -11.328125 5.171875 -11.328125 C 5.804688 -11.328125 6.429688 -11.238281 7.046875 -11.0625 C 7.660156 -10.882812 8.195312 -10.640625 8.65625 -10.328125 L 8.25 -9.390625 C 7.78125 -9.703125 7.273438 -9.929688 6.734375 -10.078125 C 6.203125 -10.234375 5.679688 -10.3125 5.171875 -10.3125 C 4.179688 -10.3125 3.4375 -10.117188 2.9375 -9.734375 C 2.445312 -9.359375 2.203125 -8.875 2.203125 -8.28125 C 2.203125 -7.832031 2.335938 -7.46875 2.609375 -7.1875 C 2.878906 -6.914062 3.21875 -6.707031 3.625 -6.5625 C 4.039062 -6.425781 4.597656 -6.269531 5.296875 -6.09375 C 6.117188 -5.894531 6.785156 -5.695312 7.296875 -5.5 C 7.804688 -5.300781 8.234375 -5 8.578125 -4.59375 C 8.929688 -4.195312 9.109375 -3.65625 9.109375 -2.96875 C 9.109375 -2.40625 8.957031 -1.890625 8.65625 -1.421875 C 8.351562 -0.953125 7.882812 -0.582031 7.25 -0.3125 C 6.625 -0.0390625 5.847656 0.09375 4.921875 0.09375 Z M 4.921875 0.09375 "/></g></g><g style="fill:#030955;fill-opacity:1;"><g transform="translate(204.784858, 193.064709)"><path style="stroke:none" d="M 4.015625 -10.203125 L 0.0625 -10.203125 L 0.0625 -11.234375 L 9.140625 -11.234375 L 9.140625 -10.203125 L 5.203125 -10.203125 L 5.203125 0 L 4.015625 0 Z M 4.015625 -10.203125 "/></g></g><g clip-rule="nonzero" clip-path="url(#6d19572e67)"><path style=" stroke:none;fill-rule:nonzero;fill:#040956;fill-opacity:1;" d="M 226.9375 180.636719 C 226.871094 180.628906 226.824219 180.636719 226.789062 180.636719 L 226.765625 180.636719 C 226.289062 180.671875 225.820312 180.707031 225.332031 180.855469 L 225.320312 180.859375 L 225.3125 180.863281 C 224.992188 180.980469 224.714844 181.105469 224.597656 181.082031 C 224.585938 181.078125 224.574219 181.070312 224.53125 181.050781 C 224.472656 181.023438 224.371094 180.976562 224.242188 180.976562 C 224.15625 180.976562 224.066406 180.988281 223.972656 181.027344 C 223.878906 181.0625 223.769531 181.132812 223.703125 181.265625 C 223.65625 181.359375 223.652344 181.488281 223.660156 181.550781 C 223.660156 181.535156 223.664062 181.542969 223.570312 181.609375 C 223.460938 181.6875 223.25 181.789062 223.171875 182.070312 L 223.171875 182.078125 L 223.167969 182.082031 C 223.105469 182.328125 223.136719 182.488281 223.136719 182.515625 C 223.117188 182.574219 223.015625 182.632812 222.8125 182.753906 L 222.800781 182.761719 C 222.460938 182.988281 222.167969 183.277344 221.972656 183.675781 C 221.9375 183.742188 221.867188 183.847656 221.867188 184.03125 C 221.867188 184.269531 221.996094 184.378906 222.070312 184.460938 C 222.144531 184.542969 222.210938 184.613281 222.195312 184.59375 L 222.203125 184.605469 L 222.214844 184.617188 C 222.238281 184.644531 222.246094 184.746094 222.191406 184.90625 C 222.148438 185.03125 222.03125 185.183594 221.9375 185.414062 C 221.867188 185.558594 221.867188 185.695312 221.867188 185.726562 L 221.867188 185.867188 L 222.085938 186.085938 L 222.101562 186.097656 C 222.398438 186.328125 222.648438 186.550781 222.867188 186.796875 L 222.859375 186.789062 C 223.035156 187.003906 223.210938 187.085938 223.355469 187.171875 C 223.542969 187.285156 223.792969 187.453125 224.140625 187.382812 C 224.289062 187.355469 224.390625 187.296875 224.46875 187.265625 C 224.542969 187.230469 224.589844 187.222656 224.582031 187.222656 C 224.558594 187.222656 224.601562 187.222656 224.660156 187.242188 C 224.710938 187.257812 224.789062 187.277344 224.886719 187.28125 C 225.257812 187.335938 225.515625 187.140625 225.625 187.09375 C 225.617188 187.097656 225.667969 187.085938 225.722656 187.101562 C 225.773438 187.113281 225.828125 187.148438 225.835938 187.15625 L 225.859375 187.179688 L 225.886719 187.199219 C 225.867188 187.183594 225.878906 187.1875 225.914062 187.238281 C 225.945312 187.289062 226.003906 187.378906 226.117188 187.460938 C 226.285156 187.582031 226.460938 187.589844 226.625 187.566406 C 226.632812 187.574219 226.636719 187.574219 226.640625 187.585938 C 226.675781 187.652344 226.6875 187.742188 226.6875 187.695312 C 226.6875 187.707031 226.679688 187.734375 226.667969 187.800781 C 226.652344 187.859375 226.632812 187.960938 226.65625 188.082031 C 226.691406 188.457031 226.761719 188.777344 227.03125 189.125 C 227.234375 189.390625 227.324219 189.597656 227.328125 189.921875 C 227.316406 190.046875 227.257812 190.191406 227.175781 190.378906 C 227.09375 190.570312 226.992188 190.800781 226.992188 191.089844 C 226.992188 191.441406 227.179688 191.695312 227.324219 191.898438 C 227.472656 192.097656 227.589844 192.265625 227.613281 192.359375 C 227.628906 192.429688 227.632812 192.597656 227.679688 192.792969 C 227.761719 193.152344 227.914062 193.457031 228.097656 193.746094 L 228.097656 193.75 L 228.101562 193.753906 C 228.210938 193.917969 228.242188 193.933594 228.25 193.941406 L 228.25 194.074219 C 228.25 194.425781 228.472656 194.679688 228.765625 194.800781 L 228.777344 194.800781 L 228.785156 194.804688 C 229.03125 194.886719 229.203125 194.8125 229.339844 194.777344 C 229.542969 194.757812 229.800781 194.71875 230.066406 194.632812 C 230.347656 194.539062 230.640625 194.410156 230.835938 194.136719 L 230.855469 194.105469 L 230.867188 194.074219 C 230.960938 193.863281 231.082031 193.65625 231.203125 193.535156 C 231.253906 193.484375 231.324219 193.421875 231.386719 193.316406 C 231.425781 193.253906 231.417969 193.148438 231.429688 193.058594 L 231.503906 193.058594 L 231.539062 193.050781 C 231.742188 193.011719 231.890625 192.859375 231.957031 192.714844 C 232.023438 192.570312 232.042969 192.425781 232.003906 192.269531 C 231.96875 192.097656 231.875 191.984375 231.816406 191.910156 C 231.769531 191.855469 231.757812 191.832031 231.746094 191.8125 C 231.75 191.800781 231.75 191.792969 231.761719 191.777344 C 231.820312 191.71875 231.90625 191.648438 231.949219 191.617188 C 232.144531 191.527344 232.453125 191.414062 232.625 191.074219 L 232.632812 191.058594 L 232.636719 191.046875 C 232.734375 190.804688 232.734375 190.527344 232.636719 190.285156 L 232.652344 190.34375 C 232.578125 189.957031 232.449219 189.664062 232.421875 189.394531 L 232.417969 189.375 L 232.414062 189.359375 C 232.382812 189.195312 232.511719 188.925781 232.679688 188.621094 C 232.777344 188.480469 232.941406 188.335938 233.121094 188.214844 L 233.125 188.210938 L 233.136719 188.207031 C 233.488281 187.941406 233.960938 187.550781 234.320312 187.109375 C 234.5 186.886719 234.652344 186.652344 234.738281 186.394531 C 234.824219 186.136719 234.835938 185.828125 234.6875 185.5625 L 234.488281 185.199219 L 234.171875 185.46875 C 234.023438 185.597656 233.652344 185.734375 233.375 185.761719 C 233.332031 185.757812 233.285156 185.75 233.277344 185.753906 C 233.269531 185.746094 233.265625 185.738281 233.269531 185.746094 L 233.25 185.707031 L 233.222656 185.675781 C 233.085938 185.519531 232.984375 185.152344 232.644531 184.859375 L 232.636719 184.851562 L 232.625 184.847656 C 232.460938 184.722656 232.367188 184.671875 232.320312 184.609375 L 232.304688 184.585938 L 232.289062 184.570312 C 232.234375 184.515625 232.167969 184.363281 232.097656 184.160156 L 232.097656 184.15625 C 231.914062 183.632812 231.914062 183.148438 231.648438 182.511719 L 231.640625 182.488281 C 231.613281 182.429688 231.574219 182.339844 231.503906 182.238281 C 231.429688 182.136719 231.273438 181.996094 231.0625 181.996094 L 230.777344 181.996094 C 230.632812 182.019531 230.46875 181.976562 230.253906 181.894531 C 230.046875 181.8125 229.808594 181.699219 229.53125 181.636719 C 229.441406 181.609375 229.347656 181.59375 229.242188 181.601562 C 229.136719 181.609375 229.003906 181.640625 228.890625 181.753906 C 228.773438 181.871094 228.753906 181.988281 228.734375 182.0625 C 228.714844 182.050781 228.679688 182.023438 228.578125 181.953125 C 228.339844 181.789062 228.066406 181.707031 227.8125 181.621094 C 227.667969 181.574219 227.585938 181.53125 227.472656 181.480469 C 227.476562 181.476562 227.480469 181.464844 227.484375 181.457031 C 227.539062 181.289062 227.507812 181.15625 227.460938 181.042969 C 227.414062 180.925781 227.34375 180.816406 227.214844 180.726562 L 227.199219 180.714844 L 227.175781 180.707031 C 227.082031 180.660156 227.003906 180.640625 226.9375 180.636719 Z M 234.324219 189.800781 C 234.21875 190.003906 234.085938 190.242188 233.914062 190.34375 C 233.78125 190.410156 233.609375 190.480469 233.542969 190.613281 C 233.441406 190.785156 233.542969 190.988281 233.507812 191.15625 C 233.507812 191.226562 233.472656 191.292969 233.441406 191.359375 C 233.40625 191.53125 233.441406 191.734375 233.507812 191.902344 C 233.542969 192.003906 233.609375 192.140625 233.710938 192.175781 C 233.78125 192.175781 233.882812 192.140625 233.949219 192.074219 C 234.019531 192.003906 234.085938 191.871094 234.117188 191.769531 C 234.152344 191.667969 234.152344 191.5625 234.152344 191.464844 C 234.1875 191.15625 234.355469 190.851562 234.425781 190.546875 C 234.460938 190.34375 234.460938 190.140625 234.425781 189.9375 C 234.390625 189.867188 234.355469 189.800781 234.324219 189.800781 Z M 231.269531 193.058594 C 231.257812 193.0625 231.289062 193.058594 231.269531 193.058594 Z M 231.269531 193.058594 "/></g></g></svg>